# xmcd
#
# Track frame offsets:
# 150
# 20740
# 35712
# 48738
# 65751
# 84155
# 96817
# 106642
# 120436
# 133403
# 151633
# 169849
# 183139
# 194823
# 209669
#
# Disc length: 3097 seconds
#
# Revision: 1
# Processed by: cddbd v1.5.1PL0 Copyright (c) Steve Scherf et al.
# Submitted via: inCDius 2.0b9
#
DISCID=d30c170f
DTITLE=Kasey Chambers - Kasey Chambers
DYEAR=1900
DGENRE=
TTITLE0=Captain
TTITLE1=Not Pretty Enough
TTITLE2=Am I The Only One 
TTITLE3=Falling Into You
TTITLE4=Another Lonely Day
TTITLE5=Freight Train
TTITLE6=We're All Gonna Die Someday
TTITLE7=Don't Go
TTITLE8=This Flower
TTITLE9=Southern Kind Of Life
TTITLE10=Cry Like A Baby
TTITLE11=Hard Way
TTITLE12=Just Wanted To See You So Bad
TTITLE13=Better Be Home Soon
TTITLE14=Million Tears
EXTD=
EXTT0=
EXTT1=
EXTT2=
EXTT3=
EXTT4=
EXTT5=
EXTT6=
EXTT7=
EXTT8=
EXTT9=
EXTT10=
EXTT11=
EXTT12=
EXTT13=
EXTT14=
PLAYORDER=
